<svg viewBox="0 0 83 22" width="113"><g fill='white' transform="translate(0, -5)"><path d="M0.02 18.5 c0 -0.84 0.66 -1.56 1.62 -2.08 c-0.56 -0.5 -0.86 -1.2 -0.86 -2.14 c0 -2.24 1.66 -3.9 4.48 -3.9 c0.94 0 1.76 0.2 2.38 0.56 c0.18 -0.28 0.3 -0.62 0.3 -1.12 l0 -0.66 l2.3 0.34 l0.02 0.32 c0 0.98 -0.36 1.74 -1.52 2.28 c0.24 0.44 0.36 0.98 0.36 1.6 c0 2.36 -1.9 3.58 -4.54 3.58 c-0.54 0 -1.02 -0.04 -1.46 -0.14 c-0.24 0.16 -0.4 0.38 -0.4 0.64 c0 1.22 6.56 -0.2 6.56 3.58 c0 2.22 -2.06 3.48 -5.28 3.48 c-2.62 0 -4.7 -0.84 -4.7 -2.42 c0 -1.3 1.36 -2.08 1.96 -2.36 c-0.7 -0.32 -1.22 -0.82 -1.22 -1.56 z M4.66 20.76 c-0.32 -0.04 -1.02 -0.08 -1.76 -0.22 c-0.3 0.2 -0.86 0.62 -0.86 1.22 c0 0.82 1.16 1.06 2.16 1.06 c1.64 0 2.14 -0.52 2.14 -1.12 s-0.54 -0.84 -1.68 -0.94 z M4.78 15.219999999999999 c0.84 0 1.26 -0.68 1.26 -1.58 c0 -0.72 -0.32 -1.2 -0.94 -1.2 c-0.82 0 -1.28 0.72 -1.28 1.7 c0 0.6 0.34 1.08 0.96 1.08 z M14.5 17.96 c1.34 0 1.92 -1.78 1.92 -3.52 c0 -0.9 -0.28 -1.74 -1.14 -1.74 c-1.38 0 -1.88 1.86 -1.88 3.5 c0 0.94 0.24 1.76 1.1 1.76 z M14.66 20.28 c-2.72 0 -4.4 -1.54 -4.4 -4 c0 -3.66 1.84 -5.9 4.9 -5.9 c2.86 0 4.44 1.46 4.44 4.08 c0 3.56 -1.94 5.82 -4.94 5.82 z M22.860000000000003 8.1 l2.92 0 l-0.36 2.56 l2.44 0 l-0.32 2.26 l-2.42 0 l-0.6 4.14 c-0.02 0.08 -0.02 0.16 -0.02 0.24 c0 0.28 0.1 0.4 0.38 0.4 c0.56 0 0.84 -0.98 1.02 -1.52 l2.24 0.94 c-0.64 1.76 -1.86 3.08 -3.72 3.08 c-2.5 0 -3.06 -1.28 -3.06 -2.72 c0 -0.42 0.06 -0.86 0.12 -1.28 l0.5 -3.28 l-1.3 0 l0.32 -2.26 l1.36 0 z M28.720000000000002 16.64 c0 -2.92 1.94 -6.26 4.98 -6.26 c1.14 0 1.7 0.46 2.08 1.22 l0.46 -0.94 l2.28 0 l-0.88 6 c-0.02 0.16 -0.04 0.38 -0.04 0.52 c0 0.42 0.16 0.54 0.42 0.54 c0.32 0 0.6 -0.18 0.6 -0.18 l-0.24 2.36 c-0.44 0.14 -1 0.22 -1.54 0.22 c-1.22 0 -2.08 -0.32 -2.08 -1.74 l-0.06 0 c-0.48 0.88 -1.56 1.9 -2.98 1.9 c-1.44 0 -3 -1.02 -3 -3.64 z M32.72 17.96 c0.98 0 2.22 -1.58 2.22 -3.8 c0 -1 -0.26 -1.46 -0.92 -1.46 c-1.46 0 -2.12 2.16 -2.12 3.74 c0 1.04 0.28 1.52 0.82 1.52 z M39.78 16.3 c0 -2.54 1.42 -5.92 5.4 -5.92 c1.98 0 3.34 0.8 3.34 2.22 c0 0.26 -0.04 0.56 -0.14 0.86 l-3 0.56 c0.06 -0.24 0.1 -0.44 0.1 -0.6 c0 -0.48 -0.24 -0.72 -0.64 -0.72 c-1.26 0 -1.86 2.08 -1.86 3.64 c0 1.24 0.54 1.62 1.12 1.62 c0.64 0 1.06 -0.3 1.46 -1.28 l2.44 0.78 c-0.44 1.08 -1.3 2.82 -4.16 2.82 c-2.5 0 -4.06 -1.12 -4.06 -3.98 z M51.400000000000006 8.1 l2.92 0 l-0.36 2.56 l2.44 0 l-0.32 2.26 l-2.42 0 l-0.6 4.14 c-0.02 0.08 -0.02 0.16 -0.02 0.24 c0 0.28 0.1 0.4 0.38 0.4 c0.56 0 0.84 -0.98 1.02 -1.52 l2.24 0.94 c-0.64 1.76 -1.86 3.08 -3.72 3.08 c-2.5 0 -3.06 -1.28 -3.06 -2.72 c0 -0.42 0.06 -0.86 0.12 -1.28 l0.5 -3.28 l-1.3 0 l0.32 -2.26 l1.36 0 z M58.04 17.06 l0.56 -4.14 l-1.06 0 l0.32 -2.26 l4.1 0 l-0.84 5.94 c-0.02 0.2 -0.04 0.36 -0.04 0.5 c0 0.4 0.12 0.62 0.52 0.62 c0.36 0 0.64 -0.18 0.64 -0.18 l-0.24 2.36 c-0.48 0.14 -1 0.22 -1.54 0.22 c-1.9 0 -2.48 -1 -2.48 -2.3 c0 -0.24 0.02 -0.5 0.06 -0.76 z M58.82 7.4 c0 -0.98 0.84 -1.8 1.82 -1.8 s1.8 0.82 1.8 1.8 s-0.82 1.82 -1.8 1.82 s-1.82 -0.84 -1.82 -1.82 z M63.28 16.3 c0 -2.54 1.42 -5.92 5.4 -5.92 c1.98 0 3.34 0.8 3.34 2.22 c0 0.26 -0.04 0.56 -0.14 0.86 l-3 0.56 c0.06 -0.24 0.1 -0.44 0.1 -0.6 c0 -0.48 -0.24 -0.72 -0.64 -0.72 c-1.26 0 -1.86 2.08 -1.86 3.64 c0 1.24 0.54 1.62 1.12 1.62 c0.64 0 1.06 -0.3 1.46 -1.28 l2.44 0.78 c-0.44 1.08 -1.3 2.82 -4.16 2.82 c-2.5 0 -4.06 -1.12 -4.06 -3.98 z M73.04 13.4 c0 -1.66 1.3 -3.02 4 -3.02 c1.74 0 3.72 0.58 3.72 2.12 c0 0.2 -0.04 0.44 -0.12 0.68 l-2.86 0.48 c0.02 -0.1 0.02 -0.22 0.02 -0.3 c0 -0.48 -0.22 -0.8 -0.82 -0.8 s-0.82 0.3 -0.82 0.72 c0 0.44 0.22 0.6 1.22 0.98 c1.04 0.4 2.82 1 2.82 2.98 c0 1.5 -1.02 3.04 -4.3 3.04 c-1.7 0 -3.72 -0.42 -3.72 -2.1 c0 -0.22 0.04 -0.44 0.1 -0.68 l2.74 -0.46 c-0.04 0.12 -0.04 0.22 -0.04 0.3 c0 0.48 0.38 0.74 1.1 0.74 c0.7 0 1.02 -0.24 1.02 -0.66 c0 -1.28 -4.06 -0.96 -4.06 -4.02 z"></path></g></svg>
