<?xml version="1.0" standalone="no"?>
<!DOCTYPE svg PUBLIC "-//W3C//DTD SVG 20010904//EN"
 "http://www.w3.org/TR/2001/REC-SVG-20010904/DTD/svg10.dtd">
<svg version="1.0" xmlns="http://www.w3.org/2000/svg"
 width="560.000000pt" height="560.000000pt" viewBox="0 0 560.000000 560.000000"
 preserveAspectRatio="xMidYMid meet">
<metadata>
Created by potrace 1.11, written by Peter Selinger 2001-2013
</metadata>
<g transform="translate(0.000000,560.000000) scale(0.100000,-0.100000)"
fill="#000000" stroke="none">
<path d="M0 2800 l0 -2800 2800 0 2800 0 0 2800 0 2800 -2800 0 -2800 0 0
-2800z m4052 1202 c-4 -20 -42 -296 -51 -372 -5 -36 -6 -67 -4 -70 3 -3 100
-6 216 -7 l212 -3 -3 -32 c-1 -18 -9 -78 -17 -133 -8 -55 -18 -127 -23 -160
l-7 -60 -217 -3 c-216 -2 -218 -3 -223 -25 -5 -20 -29 -184 -60 -407 -7 -52
-21 -146 -30 -207 -22 -151 -18 -203 16 -222 70 -39 148 40 206 209 8 25 17
47 18 48 2 2 91 -34 198 -79 l195 -83 -14 -40 c-24 -66 -99 -197 -151 -261
-135 -166 -300 -245 -514 -245 -265 0 -428 90 -500 275 -20 53 -23 78 -23 210
0 96 6 184 16 245 10 52 29 174 43 270 14 96 30 201 36 233 5 31 7 62 4 67 -4
6 -55 10 -117 10 l-110 0 7 53 c3 28 12 90 20 137 7 47 17 111 20 143 l7 57
102 0 c55 0 111 3 123 6 23 6 26 14 63 209 11 61 28 143 36 183 l15 72 257 -2
c207 -2 256 -6 254 -16z m-1402 -202 c74 -12 157 -23 184 -27 l49 -6 -6 -86
c-9 -158 -63 -250 -199 -337 l-67 -43 27 -73 c25 -66 27 -86 27 -213 0 -122
-3 -148 -24 -205 -48 -133 -126 -230 -243 -304 -31 -20 -60 -36 -63 -36 -3 0
-24 -9 -48 -19 -44 -21 -119 -41 -227 -63 -83 -16 -338 -16 -408 1 -53 13 -54
13 -82 -14 -59 -56 -60 -129 -3 -159 33 -17 153 -41 278 -56 270 -32 376 -50
475 -81 240 -75 363 -207 376 -400 18 -266 -117 -463 -391 -572 -93 -37 -131
-47 -275 -74 -109 -20 -414 -23 -525 -5 -307 50 -482 139 -557 282 -31 61 -37
179 -12 247 36 100 113 180 253 267 l73 45 -53 34 c-115 75 -153 137 -153 252
-1 70 3 87 29 135 37 68 115 146 194 195 l61 38 -30 34 c-73 83 -102 150 -119
275 -30 222 63 463 231 598 145 117 332 174 568 174 165 0 261 -21 417 -90 7
-3 22 13 34 38 19 35 24 63 27 156 5 132 -16 121 182 92z"/>
<path d="M1920 3240 c-104 -19 -168 -100 -191 -242 -18 -111 18 -205 92 -243
65 -34 183 -11 235 47 52 57 69 107 69 213 0 84 -4 107 -23 142 -35 67 -101
97 -182 83z"/>
<path d="M1534 1767 c-107 -78 -156 -185 -119 -258 21 -40 47 -65 95 -88 73
-37 132 -46 295 -46 144 0 167 2 227 24 70 25 123 67 139 109 16 41 10 112
-10 141 -35 49 -131 84 -261 96 -132 13 -282 31 -315 40 -12 2 -33 -5 -51 -18z"/>
</g>
</svg>
